<?xml version="1.0" standalone="yes"?>
<svg xmlns="http://www.w3.org/2000/svg" width="254" height="195">
<path style="fill:#ffffff; stroke:none;" d="M0 0L0 195L254 195L254 0L0 0z"/>
<path style="fill:#64f2ff; stroke:none;" d="M164 67L165 70L166 70L164 67M162 68L160 74L161 74L162 68z"/>
<path style="fill:#03ebff; stroke:none;" d="M161 74L165 68L161 74z"/>
<path style="fill:#64f2ff; stroke:none;" d="M164 71L165 72L164 71M162 73L163 74L162 73z"/>
<path style="fill:#061f45; stroke:none;" d="M108 102C104.838 96.364 84.7843 93.6488 94.4336 83.3943C98.5861 78.9813 104.683 81.3021 107 75C102.467 75 97.02 74.1884 93.0154 76.7423C84.3913 82.2424 84.0152 94.6371 93.0154 99.9105C97.5108 102.544 103.001 102 108 102z"/>
<path style="fill:#7f8d9f; stroke:none;" d="M107 75L108 76L107 75z"/>
<path style="fill:#061f45; stroke:none;" d="M126 95L109 97C112.175 105.635 131.399 103.467 130.417 93.0147C129.605 84.3789 115.207 88.1018 115.207 83.0802C115.207 79.3204 126.098 80.1734 128 75C122.103 75 99.7067 77.26 111.434 88.3472C116.016 92.6796 122.447 89.208 126 95z"/>
<path style="fill:#7f8d9f; stroke:none;" d="M128 75L129 76L128 75z"/>
<path style="fill:#061f45; stroke:none;" d="M157 86C151.882 86.004 147.973 85.6351 146 91C147.797 91.2886 152.524 92.5182 149.534 95.1458C144.261 99.7794 136.902 91.4672 138.901 86.0432C141.402 79.2581 150.278 80.9531 154 75C150.122 75 145.746 74.4724 142.001 75.6528C115.711 83.9384 149.378 116.538 156.347 94.9846C157.267 92.1388 156.998 88.9485 157 86z"/>
<path style="fill:#7f8d9f; stroke:none;" d="M164 75L163 77L164 75z"/>
<path style="fill:#061f45; stroke:none;" d="M165 75C157.383 81.0583 160 92.0334 160 101L166 101L165 75z"/>
<path style="fill:#7f8d9f; stroke:none;" d="M139 76L140 77L139 76M153 76L154 77L153 76M91 77L92 78L91 77M106 77L107 78L106 77M127 77L128 78L127 77M152 77L153 78L152 77M161 77L162 78L161 77M90 78L91 79L90 78M89 79L90 80L89 79M105 79L106 80L105 79M109 79L110 80L109 79M126 79L127 80L126 79M151 79L152 80L151 79M88 80L89 81L88 80M98 80L99 81L98 80M144 80L145 81L144 80M114 81L115 82L114 81M134 81L135 82L134 81M87 82L88 83L87 82M94 82L95 83L94 82M133.333 82.6667L133.667 83.3333L133.333 82.6667M140 82L141 83L140 82M93 83L94 84L93 83M86.3333 84.6667L86.6667 85.3333L86.3333 84.6667M114 84L115 85L114 84M92 85L93 86L92 85z"/>
<path style="fill:#64f2ff; stroke:none;" d="M98 85L98 86L101 86L98 85z"/>
<path style="fill:#7f8d9f; stroke:none;" d="M115.667 85.3333L116.333 85.6667L115.667 85.3333M132 85L132 88L133 88L132 85M138.333 85.6667L138.667 86.3333L138.333 85.6667z"/>
<path style="fill:#64f2ff; stroke:none;" d="M95 86L96 87L95 86z"/>
<path style="fill:#03ebff; stroke:none;" d="M93 88C96.9657 90.9472 100.54 90.8445 105 89L105 87L93 88z"/>
<path style="fill:#64f2ff; stroke:none;" d="M103 86L104 87L103 86z"/>
<path style="fill:#7f8d9f; stroke:none;" d="M109 86L110 87L109 86M126 86L127 87L126 86M147 86L148 87L147 86z"/>
<path style="fill:#64f2ff; stroke:none;" d="M93 87L94 88L93 87z"/>
<path style="fill:#7f8d9f; stroke:none;" d="M127 87L128 88L127 87M146.333 87.6667L146.667 88.3333L146.333 87.6667z"/>
<path style="fill:#64f2ff; stroke:none;" d="M105 88L106 89L105 88M94 89L95 90L94 89M104 89L105 90L104 89z"/>
<path style="fill:#7f8d9f; stroke:none;" d="M112 89L113 90L112 89M129 89L130 90L129 89z"/>
<path style="fill:#64f2ff; stroke:none;" d="M96.6667 90.3333L97.3333 90.6667L96.6667 90.3333M101.667 90.3333L102.333 90.6667L101.667 90.3333z"/>
<path style="fill:#7f8d9f; stroke:none;" d="M113.667 90.3333L114.333 90.6667L113.667 90.3333M132 90L133 91L132 90M145 90L146 91L145 90M124 91L125 92L124 91M130 91L131 92L130 91M151 92L151 95L152 95L151 92M93 93L94 94L93 93M125.333 93.6667L125.667 94.3333L125.333 93.6667M87 94L88 95L87 94M94 94L95 95L94 94M140 94L141 95L140 94M95 95L96 96L95 95M130.333 95.6667L130.667 96.3333L130.333 95.6667M142 95L143 96L142 95M150 95L151 96L150 95M156.333 95.6667L156.667 96.3333L156.333 95.6667M88 96L89 97L88 96M98.6667 96.3333L99.3333 96.6667L98.6667 96.3333M109 96L109 97L123 97L109 96M144.667 96.3333L145.333 96.6667L144.667 96.3333M89 97L90 98L89 97M105 97L106 98L105 97M155 97L156 98L155 97M90 98L91 99L90 98M129 98L130 99L129 98M91 99L92 100L91 99M128 99L129 100L128 99M93 100L94 101L93 100M139 100L140 101L139 100M95.6667 101.333L96.3333 101.667L95.6667 101.333M124 101L125 102L124 101M141.667 101.333L142.333 101.667L141.667 101.333z"/>
<path style="fill:#64f2ff; stroke:none;" d="M88.3333 108.667L88.6667 109.333L88.3333 108.667M126 108L127 109L126 108z"/>
<path style="fill:#03ebff; stroke:none;" d="M100 109L100 115L101 115L100 109z"/>
<path style="fill:#64f2ff; stroke:none;" d="M133 109L134 110L133 109M160 109L157 114L157 115L161 115L160 109M147 110L146 116L147 116L147 112L150 116L153 115L153 114L150 112L153 113L147 110M86 113L90 113C88.4444 111.187 87.5556 111.187 86 113M91 111L91 112L94 112L91 111M95 111L95 112L99 113L95 111M102 111L106 115L106 114L104 112L106 113L102 111M110 111L111 116L114 115L114 111L110 111M115 111L116 115L119 115L119 111L117 114L116 114L115 111z"/>
<path style="fill:#03ebff; stroke:none;" d="M120.333 111.667L120.667 112.333L120.333 111.667z"/>
<path style="fill:#64f2ff; stroke:none;" d="M121 111L122 112L121 111z"/>
<path style="fill:#03ebff; stroke:none;" d="M122 111L123 112L122 111z"/>
<path style="fill:#64f2ff; stroke:none;" d="M120 113L120 117L121 117L125 113L127 116L128 115L126 112L128 113L120 113z"/>
<path style="fill:#03ebff; stroke:none;" d="M127 111L128 112L127 111z"/>
<path style="fill:#64f2ff; stroke:none;" d="M129 111L129 115L132 112L133 115L136 113L138 116L139 115L137 112L139 113L129 111z"/>
<path style="fill:#03ebff; stroke:none;" d="M136 111L137 112L136 111M138 111L139 112L138 111z"/>
<path style="fill:#64f2ff; stroke:none;" d="M140 111L145 115L145 111L143 114L142 114L140 111z"/>
<path style="fill:#03ebff; stroke:none;" d="M157 111L157 114L158 114L157 111z"/>
<path style="fill:#64f2ff; stroke:none;" d="M158 111L159 112L158 111z"/>
<path style="fill:#03ebff; stroke:none;" d="M159 111L160 112L159 111z"/>
<path style="fill:#64f2ff; stroke:none;" d="M162 111C162.209 113.858 162.174 115 165 115L163 112L166 113L162 111z"/>
<path style="fill:#03ebff; stroke:none;" d="M91 112L92 113L91 112M95.3333 112.667L95.6667 113.333L95.3333 112.667z"/>
<path style="fill:#ffffff; stroke:none;" d="M96 112L96 114L98 114L98 112L96 112M121 112L121 114L123 114L123 112L121 112M158 112L158 114L160 114L160 112L158 112z"/>
<path style="fill:#03ebff; stroke:none;" d="M86 113L87 114L86 113z"/>
<path style="fill:#64f2ff; stroke:none;" d="M91 113L94 115L91 113z"/>
<path style="fill:#03ebff; stroke:none;" d="M98 113L99 114L98 113z"/>
<path style="fill:#64f2ff; stroke:none;" d="M86 114L86 115L90 115L86 114M95 114L95 115L99 115L95 114M101 114L102 115L101 114z"/>
<path style="fill:#03ebff; stroke:none;" d="M115 114L116 115L115 114M117 114L118 115L117 114M120 114L121 115L120 114M125 114L126 115L125 114M136 114L137 115L136 114M141 114L142 115L141 114M143 114L144 115L143 114z"/>
<path style="fill:#64f2ff; stroke:none;" d="M93 118L94 119L93 118M102 118L103 119L102 118M113 118L114 119L113 118M121 118L121 125L122 125L121 118z"/>
<path style="fill:#03ebff; stroke:none;" d="M149 118L150 119L149 118M146 119L146 124L147 124L146 119z"/>
<path style="fill:#64f2ff; stroke:none;" d="M86 120L87 121L86 120z"/>
<path style="fill:#03ebff; stroke:none;" d="M87 120L86 123L87 123L87 120z"/>
<path style="fill:#64f2ff; stroke:none;" d="M88 120L86 123L86 124L89 124L87 127C89.8549 125.15 90.7443 122.41 88 120M92 120L92 125L94 125L95 120L94 120L93 122L92 120z"/>
<path style="fill:#03ebff; stroke:none;" d="M93 120L94 121L93 120z"/>
<path style="fill:#64f2ff; stroke:none;" d="M96 120L97 125L98 125L98 121L99 121L99 125L100 125L100 120L96 120M102 120L102 125L103 125L102 120M105 120L105 125L108 121L105 122L105 120z"/>
<path style="fill:#03ebff; stroke:none;" d="M106 120L107 121L106 120z"/>
<path style="fill:#64f2ff; stroke:none;" d="M113 120L113 125L114 125L113 120M115 120L115 125L116 125L117 120L115 120z"/>
<path style="fill:#03ebff; stroke:none;" d="M117 120L118 124L119 124L117 120z"/>
<path style="fill:#64f2ff; stroke:none;" d="M118 120L119 121L118 120z"/>
<path style="fill:#03ebff; stroke:none;" d="M121 120L122 121L121 120z"/>
<path style="fill:#64f2ff; stroke:none;" d="M124 120L126 125L124 120z"/>
<path style="fill:#03ebff; stroke:none;" d="M125 120L127 122L125 120z"/>
<path style="fill:#64f2ff; stroke:none;" d="M126 120L127 121L126 120M128 120L128 125L129 125L131 120L128 120M133 120L133 124L134 124L134 121L135 121L135 125L136 125L137 121L138 121L138 125L139 125L139 120L133 120z"/>
<path style="fill:#03ebff; stroke:none;" d="M135 120L136 121L135 120M141 120L142 121L141 120z"/>
<path style="fill:#64f2ff; stroke:none;" d="M142 120L141 125C144.162 124.322 144.916 121.68 142 120M145 120L146 121L145 120M147 120L148 121L147 120z"/>
<path style="fill:#03ebff; stroke:none;" d="M149 120L149 124L150 124L149 120z"/>
<path style="fill:#64f2ff; stroke:none;" d="M151 120L154 127L155 127L152 123L153 120L151 120z"/>
<path style="fill:#03ebff; stroke:none;" d="M153.667 120.333L154.333 120.667L153.667 120.333z"/>
<path style="fill:#64f2ff; stroke:none;" d="M157 120L157 125L161 125L161 120L159 120L159 124L158 124L157 120M162 120L165 125L166 121L162 120z"/>
<path style="fill:#ffffff; stroke:none;" d="M87 121L87 123L89 123L87 121M93 121L94 122L93 121M105.667 121.333L106.333 121.667L105.667 121.333M125 121L126 124L125 121M153 121L154 124L153 121z"/>
<path style="fill:#64f2ff; stroke:none;" d="M154.333 121.667L154.667 122.333L154.333 121.667z"/>
<path style="fill:#ffffff; stroke:none;" d="M163.667 121.333L164.333 121.667L163.667 121.333z"/>
<path style="fill:#03ebff; stroke:none;" d="M104 122L105 123L104 122z"/>
<path style="fill:#64f2ff; stroke:none;" d="M126 122L127 123L126 122z"/>
<path style="fill:#03ebff; stroke:none;" d="M162.333 122.667L162.667 123.333L162.333 122.667z"/>
<path style="fill:#ffffff; stroke:none;" d="M93 123L94 124L93 123M106 123L107 124L106 123z"/>
<path style="fill:#03ebff; stroke:none;" d="M126 123L127 124L126 123z"/>
<path style="fill:#ffffff; stroke:none;" d="M142 123L143 124L142 123z"/>
<path style="fill:#03ebff; stroke:none;" d="M154 123L155 124L154 123z"/>
<path style="fill:#64f2ff; stroke:none;" d="M118 124L119 125L118 124M147 124L148 125L147 124M149 124L150 125L149 124M86 125L87 126L86 125z"/>
</svg>
